<svg
	version="1.2"
	xmlns="http://www.w3.org/2000/svg"
	viewBox="0 0 1400 1400"
	width="1400"
	height="1400"
>
	<path fill="#222" d="m0 0h1400v1400h-1400z" />
	<path
		fill="#fff"
		fill-rule="evenodd"
		d="m1158.3 333.3v641.7c0 50.4-41.2 91.7-91.6 91.7h-733.4c-50.4 0-91.6-41.3-91.6-91.7l0.4-550c0-50.4 40.8-91.7 91.2-91.7h45.9l91.6 137.5h137.5l-91.6-137.5h91.6l91.7 137.5h137.5l-91.7-137.5h91.7l91.7 137.5h137.5l-91.7-137.5zm-366.7 458.4l-126-57.3-57.3-126.1-57.3 126.1-126 57.3 126 57.3 57.3 126 57.3-126zm229.2-137.5l-94.5-43.1-43-94.4-43.1 94.4-94.4 43.1 94.4 43 43.1 94.5 43-94.5z"
	/>
</svg>
